<svg version="1.1" viewBox="0 0 64 64" xmlns="http://www.w3.org/2000/svg">
  <path d="m58.267 32a26.267 26.267 0 01-26.267 26.267 26.267 26.267 0 01-26.267-26.267 26.267 26.267 0 0126.267-26.267 26.267 26.267 0 0126.267 26.267z" fill="none" stroke="#000" stroke-width="3" style="paint-order:normal"/>
  <path d="m20.753 15.783 2.8025 4.2061c-2.8104-1.715-6.1019-2.6528-9.5764-2.4234l6.9409 5.7743c-3.6811-.8818-7.6589-.51996-11.122 1.5434l3.6397 1.2365c-2.3844.61584-4.6658 1.712-6.625 3.4389l24.383 2.5904.19857.06769h.30462c-.000557-.0038-.0017-.0074-.0023-.01132l.0068.01132h.59571l.0045-.0068c-.000345.0024-.002.0044-.0023.0068h.30462l.19857-.06769 24.383-2.5904c-1.9592-1.7269-4.2406-2.823-6.625-3.4389l3.6397-1.2365c-3.4639-2.0638-7.4405-2.4259-11.122-1.5434l6.9409-5.7743c-3.4745-.22936-6.766.70847-9.5764 2.4234l2.8025-4.2061c-6.3559 1.6777-10.706 7.3889-11.246 13.74-.54091-6.3507-4.8925-12.062-11.248-13.74z" fill="none" stroke="#000" stroke-linecap="round" stroke-linejoin="round" stroke-width="1.1553"/>
  <g>
    <path d="m22.112 35.368q-.36426.11782-.49753.30194-.12882.18411-.25765.77326-1.075 4.809-1.8568 8.7931h-.13771l-1.4526-6.385-1.4037 6.385h-.13771l-1.7547-8.1009q-.22655-1.0605-.40424-1.3845-.17769-.32404-.53307-.38295v-.28721h2.23v.28721q-.34649.03682-.47088.13992-.11994.09574-.11994.34613 0 .25775.09773.69226l1.3105 5.6706.97284-4.2566-.29763-1.2372q-.21767-.89846-.37315-1.1194-.15104-.22093-.54639-.23566v-.28721h2.4299v.28721q-.70187.02209-.70187.53024 0 .2283.13771.7659.04887.19884.10661.45659l1.2038 5.1404 1.1372-5.1109q.14659-.65543.14659-1.1341 0-.54497-.6308-.64807v-.28721h1.8035z"/>
    <path d="m26.238 44.463q-.41757.75117-.81737.75117-.51974 0-.58193-1.0973-.78183 1.0973-1.3282 1.0973-.41757 0-.68854-.44923-.26653-.44923-.26653-1.1636 0-.82482.32872-1.3109.2843-.42714.59081-.67753.2843-.23566 1.3549-.95001v-.92055q0-1.252-.69299-1.252-.27098 0-.46199.22093-.19102.21357-.19102.51551 0 .10311.02221.3093.02221.19884.02221.29458 0 .25039-.12438.44187-.12438.19147-.2843.19147-.15992 0-.27542-.19147-.11549-.19148-.11549-.4566 0-.70698.43978-1.193.44422-.49342 1.0883-.49342.81737 0 1.1283.83218.18213.48605.18213 1.5834v2.9384q0 .87637.27098.87637.19102 0 .3998-.28721zm-1.4082-1.252v-2.1872q-.82181.49342-1.1505.96474-.32428.46396-.32428 1.1341v.05892q0 .48605.16436.82482.1688.33876.40868.33876.30207 0 .66633-.34613.23544-.2283.23544-.788z"/>
    <path d="m28.593 45.067h-2.1456v-.2283q.4309-.05155.56416-.25775.13771-.21357.13771-.82482v-7.195q0-.53024-.0844-.72172-.07996-.19884-.29763-.19884-.0844 0-.2843.02946h-.05331v-.24303q.90177-.36822 1.4482-.6628l.03554.02946v9.0067q0 .61861.12438.81009.12438.18411.55528.2283z"/>
    <path d="m31.12 45.067h-2.1456v-.2283q.43089-.05155.56416-.25775.13771-.21357.13771-.82482v-7.195q0-.53024-.0844-.72172-.07996-.19884-.29763-.19884-.0844 0-.2843.02946h-.05331v-.24303q.90177-.36822 1.4482-.6628l.03554.02946v9.0067q0 .61861.12438.81009.12438.18411.55528.2283z"/>
    <path d="m34.479 43.285q0 .79536-.38203 1.3624-.37759.56706-.90177.56706-.27986 0-.66633-.14729-.30651-.11782-.41757-.11782-.13327 0-.20878.17675h-.11994v-2.3493h.14659q.15548 1.1194.39092 1.5834.27098.52287.76406.52287.35093 0 .55083-.28721.20434-.29458.20434-.79536 0-.68489-.47087-1.1341l-.52862-.49342q-.57749-.54497-.82181-1.0384-.24432-.50078-.24432-1.1341 0-.81745.34649-1.333.35094-.52288.89288-.52288.35982 0 .63524.18411.16436.10311.24876.10311.0311 0 .12438-.12519l.01777-.02946h.10217l.03554 2.0547h-.13771q-.15548-1.0089-.38203-1.4287-.22655-.42714-.61747-.42714-.31096 0-.50641.28721-.19546.28721-.19546.73644 0 .6407.39092 1.031l.98617.96474q.76406.75117.76406 1.7896z"/>
    <path d="m39.281 45.067h-1.9279v-.2283q.41757-.06628.53306-.36822.0844-.22093.0844-.94265v-2.9826q0-1.5981-.67966-1.5981-.48864 0-1.0084.95001v3.6307q0 .72171.07996.94265.1155.29458.53751.36822v.2283h-1.9679v-.2283q.42201-.09574.51974-.38295.06663-.18411.06663-.92792v-7.1067q0-.60388-.17325-.70698-.08884-.05892-.29319-.05892-.07107 0-.11106.01473v-.24303l.24876-.11782q.73741-.36086 1.0439-.54497l.04887.04419v4.588q.58193-1.2667 1.3371-1.2667 1.115 0 1.115 2.4008v2.9973q0 .72171.05774.89846.09329.29458.48864.41241z"/>
    <path d="m43.421 44.463q-.41757.75117-.81737.75117-.51974 0-.58193-1.0973-.78183 1.0973-1.3282 1.0973-.41757 0-.68854-.44923-.26653-.44923-.26653-1.1636 0-.82482.32872-1.3109.2843-.42714.59082-.67753.2843-.23566 1.3549-.95001v-.92055q0-1.252-.69299-1.252-.27098 0-.46199.22093-.19102.21357-.19102.51551 0 .10311.02221.3093.02221.19884.02221.29458 0 .25039-.12438.44187-.12438.19147-.2843.19147-.15992 0-.27542-.19147-.1155-.19148-.1155-.4566 0-.70698.43978-1.193.44422-.49342 1.0883-.49342.81737 0 1.1283.83218.18213.48605.18213 1.5834v2.9384q0 .87637.27098.87637.19102 0 .3998-.28721zm-1.4082-1.252v-2.1872q-.82181.49342-1.1505.96474-.32428.46396-.32428 1.1341v.05892q0 .48605.16436.82482.1688.33876.40868.33876.30207 0 .66633-.34613.23544-.2283.23544-.788z"/>
    <path d="m46.486 38.925q0 .68489-.35538.68489-.15992 0-.36426-.30194-.15104-.2283-.23544-.2283-.18657 0-.41313.44187-.22211.4345-.22211.79536v3.395q0 .69226.19546.92055.14659.17675.57749.2062v.2283h-2.1856v-.2283q.41757-.12519.5153-.26512.13327-.17675.13327-.77326v-3.7706q0-.90582-.31096-.90582-.14659 0-.31984.05892v-.23567q.72852-.39031 1.346-.81745l.04887.02946v1.3845q.33317-.80272.5686-1.1047.23544-.30931.51974-.30931.50197 0 .50197.79536z"/>
    <path d="m50.324 42.695q-.59081 2.5186-1.9279 2.5186-.78627 0-1.2438-.90582t-.45755-2.4671q0-1.9442.67522-2.931.53307-.78063 1.2261-.78063.74629 0 1.1639.86164.29763.60388.39092 1.9h-2.7986q.02221 1.252.24432 1.9884.38647 1.2961 1.1727 1.2961.43978 0 .75962-.36086.32428-.36086.653-1.2225zm-1.0972-2.2903q-.08884-.97947-.2843-1.3551-.19102-.37559-.60858-.37559-.81737 0-.96396 1.7306z"/>
  </g>
</svg>
