<svg version="1.1" viewBox="0 0 16 16" xmlns="http://www.w3.org/2000/svg">
  <path d="m3.2222 10.222c-.1585.58208-.31744 1.1658-.0008644 1.3923.31657.22654 1.1082.09569 1.6145.23082.50633.13514.72748.53536.9496.93735m5.7751-10.39c-.08202.0001911-.34564.0008051-.42805.0009971-.08241.0001919-.22328.14106-.22328.14106l-.0014-.00138s-7.6815 7.6815-7.6815 7.6815l-.00138-.0014s-.00138.0041-.00138.0041-.00276.0028-.00276.0028l.00138.0014-.47647 1.7498-.44885 1.6449-.031764.11187.10496-.02762 1.6545-.4447s1.7581-.47371 1.7581-.47371h.00276s7.5448-7.5448 7.5448-7.5448l.14087-.14087s.14087-.14087.14087-.22308v-.42943c0-.082215-1.9694-2.0516-2.0514-2.0514z" fill="none" stroke="#000" stroke-linecap="round" stroke-linejoin="round" stroke-width=".4"/>
</svg>
