<svg class="stroke-current" enable-background="new 0 0 471.701 471.701" version="1.1" viewBox="0 0 471.7 471.7" xmlns="http://www.w3.org/2000/svg">
  <path d="m138.48 49.936c-47.876 1.255-93.693 34.222-108.09 80.53-15.039 43.837-.5871 94.979 34.21 125.33 54.813 54.586 109.2 109.65 164.29 163.94l.0385.0385.0471.0262c3.0938 1.845 5.977 2.3071 8.638 1.8185 2.661-.48862 5.0843-1.905 7.3489-3.7347 4.5292-3.6594 8.4797-9.001 12.375-12.261l.0157-.014.0139-.014c53.767-53.873 108.17-107.15 161.54-161.41l.007-.007.007-.009c39.859-44.471 37.378-118.04-5.7803-159.49-39.666-41.539-110.43-45.804-154.92-9.5761-.002.0015-.004.0038-.005.0053-.00089.000815-.003.000894-.004.0018-8.0704 6.2372-14.904 13.792-22.113 20.864-20.266-22.351-46.321-40.815-77.045-44.584-6.8385-1.1688-13.722-1.6379-20.562-1.4586z" color="#000000" color-rendering="auto" dominant-baseline="auto" enable-background="accumulate" fill="#000004" image-rendering="auto" shape-rendering="auto" solid-color="#000000" stroke="#f20000" stroke-linecap="round" stroke-linejoin="round" stroke-width="24.5" style="font-feature-settings:normal;font-variant-alternates:normal;font-variant-caps:normal;font-variant-ligatures:normal;font-variant-numeric:normal;font-variant-position:normal;isolation:auto;mix-blend-mode:normal;shape-padding:0;text-decoration-color:#000000;text-decoration-line:none;text-decoration-style:solid;text-indent:0;text-orientation:mixed;text-transform:none;white-space:normal"/>
</svg>
