<svg version="1.1" viewBox="0 0 32 32" class="fill-current" xmlns="http://www.w3.org/2000/svg">
  <g fill-rule="evenodd" stroke="none">
    <path d="m1.334.46484c-1.1482.10479-.82237 1.3913-.86872 2.1847.002111 6.5885.004222 13.177.006333 19.765.34229-.52519 1.1043-.89373.93856-1.6085v-19.397h29.18v14.48c.3151.73657.63021 1.4731.94531 2.2097v-16.766c-.10479-1.1481-1.3913-.82245-2.1847-.86911-9.3389.00019103-18.678.00038206-28.017.00057309z" />
    <path d="m25.527 5.867c-1.5362.21759-2.1563 1.966-3.0026 3.0689-1.9285 2.9383-3.7981 6.0834-6.6946 8.1767-1.1572.91937-2.768.62364-3.8321-.28052-1.2592-.92013-2.784-2.3165-4.4529-1.5212-2.5843 1.319-4.2989 3.7804-6.1383 5.939-.61605.63155-1.1251 1.3024-.9353 2.2177.021174 2.5634-.042452 5.1352.031996 7.6933.42944.47269 1.197.1558 1.7801.24823h28.843c.71172-.21149.29822-1.1587.40884-1.7226v-11.586c-1.4058-3.7445-2.5322-7.6511-4.611-11.095-.34715-.48309-.76093-1.0554-1.3968-1.1379z"/>
    <path d="m13.218 8.2521c.12318 2.9475-3.2832 5.2012-5.948 3.943-2.7614-1.0347-3.5157-5.0488-1.3155-7.0139 2.0284-2.1417 6.0189-1.2705 6.9725 1.5197.192.49309.29116 1.0222.29093 1.5512z" style="paint-order:normal"/>
  </g>
</svg>
