<svg version="1.1" viewBox="0 0 64 64" xmlns="http://www.w3.org/2000/svg">
  <path d="m20.348 57.94c6.3889-4.5764 18.336-7.092 25.902-11.98 7.5654-4.8876 13.849-9.7084 14.424-20.25-.46037-11.015-9.0395-14.095-15.49-13.843-11.234.004245-21.524 18.685-18.817 21.964 31.921-20.064 21.871 5.2966-6.0186 24.108zm23.304-51.881c-6.3889 4.5764-18.336 7.092-25.902 11.98-7.5654 4.8876-13.849 9.7084-14.424 20.25.46037 11.015 9.0395 14.095 15.49 13.843 11.234-.004245 21.524-18.685 18.817-21.964-31.921 20.064-21.871-5.2966 6.0186-24.108z" />
</svg>
